# xmcd
#
# Track frame offsets: 
#        150
#        20834
#        39272
#        52204
#        65166
#        83832
#        88217
#        100324
#        115764
#        131042
#        145755
#        159853
#
# Disc length: 2862 seconds
#
# Revision: 0
# Processed by: cddbd v1.5.1PL0 Copyright (c) Steve Scherf et al.
# Submitted via: ExactAudioCopy v0.95a5
#
DISCID=a60b2c0c
DTITLE=King Radio - Are You The Sick Passenger?
DYEAR=2004
DGENRE=Crossover
TTITLE0=Introduction
TTITLE1=Famous Umbrellas
TTITLE2=Meet the Maker
TTITLE3=Caveat Emptor
TTITLE4=Busman's Holiday
TTITLE5=Intermission
TTITLE6=The Sick Passenger
TTITLE7=Pistil and the Stamen
TTITLE8=You Were the One
TTITLE9=Am I the Same Girl?
TTITLE10=Dead and Gone
TTITLE11=Haley's Comet
EXTD=
EXTT0=
EXTT1=
EXTT2=
EXTT3=
EXTT4=
EXTT5=
EXTT6=
EXTT7=
EXTT8=
EXTT9=
EXTT10=
EXTT11=
PLAYORDER=
